<?xml version="1.0" encoding="UTF-8" standalone="no"?>
<svg
   xmlns:dc="http://purl.org/dc/elements/1.1/"
   xmlns:cc="http://creativecommons.org/ns#"
   xmlns:rdf="http://www.w3.org/1999/02/22-rdf-syntax-ns#"
   xmlns:svg="http://www.w3.org/2000/svg"
   xmlns="http://www.w3.org/2000/svg"
   xmlns:sodipodi="http://sodipodi.sourceforge.net/DTD/sodipodi-0.dtd"
   xmlns:inkscape="http://www.inkscape.org/namespaces/inkscape"
   inkscape:version="1.0 (4035a4f, 2020-05-01)"
   sodipodi:docname="purplecrayola_white.svg"
   version="1.1"
   viewBox="0 0 550.57 303.58"
   data-name="Layer 1"
   id="Layer_1">
  <metadata
     id="metadata826">
    <rdf:RDF>
      <cc:Work
         rdf:about="">
        <dc:format>image/svg+xml</dc:format>
        <dc:type
           rdf:resource="http://purl.org/dc/dcmitype/StillImage" />
        <dc:title>brand guide</dc:title>
      </cc:Work>
    </rdf:RDF>
  </metadata>
  <sodipodi:namedview
     inkscape:current-layer="g863"
     inkscape:window-maximized="0"
     inkscape:window-y="0"
     inkscape:window-x="0"
     inkscape:cy="104.35804"
     inkscape:cx="125.71306"
     inkscape:zoom="4.3422767"
     showgrid="false"
     id="namedview824"
     inkscape:window-height="900"
     inkscape:window-width="1440"
     inkscape:pageshadow="2"
     inkscape:pageopacity="0"
     guidetolerance="10"
     gridtolerance="10"
     objecttolerance="10"
     borderopacity="1"
     bordercolor="#666666"
     pagecolor="#ffffff" />
  <defs
     id="defs785">
    <style
       id="style783">.cls-1{fill:#021530;}.cls-2{fill:#dcdddf;}.cls-3{fill:#fff;}</style>
  </defs>
  <title
     id="title787">brand guide</title>
  <g
     id="g883">
    <g
       id="g863">
      <g
         id="g902">
        <path
           class="cls-1"
           d="m 128.36055,109.29064 h -0.63209 v -5.0568 h 1.91842 c 1.13937,0 1.78569,0.57363 1.78569,1.51546 0,0.94183 -0.64632,1.51387 -1.78569,1.51387 h -1.28633 z m 0,-2.61848 h 1.26421 c 0.75061,0 1.13935,-0.30025 1.13935,-0.91654 0,-0.6163 -0.38874,-0.91655 -1.13935,-0.91655 h -1.26421 z"
           id="path789"
           style="stroke-width:0.158025" />
        <path
           class="cls-1"
           d="m 133.58328,109.36332 c -0.82647,0 -1.56603,-0.47407 -1.56603,-1.50912 v -1.99113 h 0.5926 v 1.94372 c 0,0.70005 0.41403,1.00978 0.97343,1.00978 0.55941,0 0.97029,-0.31606 0.97029,-1.00978 v -1.94372 h 0.59101 v 1.99113 c 0,1.03663 -0.73956,1.50912 -1.5613,1.50912 z"
           id="path791"
           style="stroke-width:0.158025" />
        <path
           class="cls-1"
           d="m 138.20236,105.91048 -0.1438,0.57996 a 1.3258308,1.3258308 0 0 0 -0.58785,-0.13275 c -0.52307,0 -0.89285,0.3998 -0.89285,1.03032 v 1.90895 h -0.58627 v -3.43389 h 0.57995 v 0.45195 a 1.207312,1.207312 0 0 1 1.00346,-0.52305 1.4648929,1.4648929 0 0 1 0.62736,0.11851 z"
           id="path793"
           style="stroke-width:0.158025" />
        <path
           class="cls-1"
           d="m 142.16089,107.57765 c 0,1.03506 -0.75378,1.78567 -1.71299,1.78567 a 1.5075597,1.5075597 0 0 1 -1.2089,-0.53095 v 1.8963 h -0.58785 v -4.8656 h 0.58785 v 0.45827 a 1.5059794,1.5059794 0 0 1 1.2089,-0.52937 c 0.95921,0 1.71299,0.75061 1.71299,1.78568 z m -2.95823,0 c 0,0.70321 0.48356,1.2326 1.17571,1.2326 0.69215,0 1.1757,-0.55468 1.1757,-1.2326 0,-0.67793 -0.47407,-1.23102 -1.1757,-1.23102 -0.70164,0 -1.17571,0.53097 -1.17571,1.23102 z"
           id="path795"
           style="stroke-width:0.158025" />
        <path
           class="cls-1"
           d="m 142.78351,109.29064 v -5.19429 h 0.58785 v 5.19429 z"
           id="path797"
           style="stroke-width:0.158025" />
        <path
           class="cls-1"
           d="m 147.31251,107.56658 c 0,0.0758 0,0.15803 -0.0106,0.21966 h -2.6959 c 0.0869,0.71111 0.57363,1.06035 1.16622,1.06035 a 1.5802513,1.5802513 0 0 0 1.05719,-0.40771 l 0.31606,0.40454 a 1.9547708,1.9547708 0 0 1 -1.40643,0.5199 c -1.02085,0 -1.73827,-0.719 -1.73827,-1.78567 0,-1.06667 0.72217,-1.78568 1.70351,-1.78568 0.93393,0 1.59762,0.72532 1.60869,1.77461 z m -2.69907,-0.256 h 2.09699 c -0.0775,-0.60682 -0.46301,-0.99556 -1.02242,-0.99556 -0.60208,0 -0.98765,0.41088 -1.07457,0.99556 z"
           id="path799"
           style="stroke-width:0.158025" />
        <path
           class="cls-1"
           d="m 154.52906,105.28591 -0.52939,0.35714 a 1.8093877,1.8093877 0 0 0 -1.53759,-0.79012 c -1.10618,0 -1.95161,0.80592 -1.95161,1.99268 0,1.18678 0.8407,1.99113 1.95161,1.99113 a 1.8062272,1.8062272 0 0 0 1.53443,-0.79013 l 0.51833,0.37926 a 2.4320067,2.4320067 0 0 1 -2.05434,1.02084 c -1.51546,0 -2.61532,-1.08563 -2.61532,-2.6011 0,-1.51545 1.10618,-2.60266 2.61532,-2.60266 0.88495,-0.005 1.67191,0.39347 2.06856,1.04296 z"
           id="path801"
           style="stroke-width:0.158025" />
        <path
           class="cls-1"
           d="m 157.40194,105.97806 -0.14379,0.58153 a 1.3274111,1.3274111 0 0 0 -0.58786,-0.13432 c -0.52306,0 -0.89284,0.3998 -0.89284,1.03191 v 1.90893 h -0.58628 v -3.42756 h 0.57996 v 0.45037 a 1.2120527,1.2120527 0 0 1 1.00346,-0.52306 1.4885966,1.4885966 0 0 1 0.62735,0.1122 z"
           id="path803"
           style="stroke-width:0.158025" />
        <path
           class="cls-1"
           d="m 160.36808,109.36611 v -0.45827 a 1.5217819,1.5217819 0 0 1 -1.20889,0.52939 c -0.96711,0 -1.71299,-0.74904 -1.71299,-1.78568 0,-1.03665 0.74588,-1.78569 1.71299,-1.78569 a 1.5012387,1.5012387 0 0 1 1.20889,0.53413 v -0.46144 h 0.59101 v 3.42756 z m -2.31981,-1.71456 c 0,0.67793 0.47407,1.23417 1.17887,1.23417 0.70479,0 1.17729,-0.52938 1.17729,-1.23417 0,-0.7048 -0.48356,-1.22944 -1.17729,-1.22944 -0.69373,0 -1.17887,0.55309 -1.17887,1.22944 z"
           id="path805"
           style="stroke-width:0.158025" />
        <path
           class="cls-1"
           d="m 161.58487,110.82785 1.2642,-2.19497 -1.56287,-2.69433 h 0.66055 l 1.23418,2.10648 1.17254,-2.10648 h 0.64949 l -2.76386,4.8893 z"
           id="path807"
           style="stroke-width:0.158025" />
        <path
           class="cls-1"
           d="m 168.62015,107.65155 a 1.8141284,1.8141284 0 1 1 -1.81571,-1.78253 1.7572393,1.7572393 0 0 1 1.81571,1.78253 z m -3.02302,0 a 1.2088922,1.2088922 0 1 0 1.20731,-1.22944 1.1851884,1.1851884 0 0 0 -1.20731,1.22944 z"
           id="path809"
           style="stroke-width:0.158025" />
        <path
           class="cls-1"
           d="m 169.24277,109.36611 v -5.19586 h 0.58628 v 5.19586 z"
           id="path811"
           style="stroke-width:0.158025" />
        <path
           class="cls-1"
           d="m 173.37671,109.36611 v -0.45827 a 1.5186215,1.5186215 0 0 1 -1.20731,0.52939 c -0.96712,0 -1.71458,-0.74904 -1.71458,-1.78568 0,-1.03665 0.74746,-1.78253 1.70826,-1.78253 a 1.4980782,1.4980782 0 0 1 1.2073,0.53412 v -0.46142 h 0.5926 v 3.42756 z m -2.31981,-1.71456 c 0,0.67793 0.47408,1.23417 1.17886,1.23417 0.7048,0 1.17571,-0.52938 1.17571,-1.23417 0,-0.7048 -0.48356,-1.22944 -1.17571,-1.22944 -0.69214,0 -1.17886,0.55309 -1.17886,1.22944 z"
           id="path813"
           style="stroke-width:0.158025" />
        <path
           class="cls-1"
           d="m 175.66649,108.93945 a 0.50093965,0.50093965 0 0 1 -0.48988,0.49778 0.49461864,0.49461864 0 1 1 0,-0.98766 0.49935939,0.49935939 0 0 1 0.48988,0.48988 z"
           id="path815"
           style="stroke-width:0.158025" />
        <path
           class="cls-1"
           d="m 120.99846,113.64 h -6.55705 A 6.7114094,6.7114094 0 0 1 107.73,106.92859 v -4.69799 a 2.590604,2.590604 0 0 1 2.5906,-2.5906 h 10.69933 a 2.7691275,2.7691275 0 0 1 2.76913,2.76913 v 8.44027 a 2.790604,2.790604 0 0 1 -2.7906,2.7906 z"
           id="path817"
           style="stroke-width:0.134228" />
        <path
           class="cls-2"
           d="m 114.76893,110.68295 v 0 c -0.59463,0 -1.07383,-0.53691 -1.07383,-1.19731 v -5.54228 c 0,-0.66041 1.32215,-1.01611 1.91678,-1.01611 l -0.26846,0.9396 c 0.59463,0 0.50336,-0.81477 0.50336,-0.15437 v 5.77182 c -10e-4,0.66174 -0.48322,1.19865 -1.07785,1.19865 z"
           id="path819"
           style="stroke-width:0.134228" />
        <path
           class="cls-3"
           d="m 119.86289,105.57154 v 0.54497 c 0,0.0577 0,0.11678 0,0.1745 -0.10336,1.97718 -2.0537,3.14765 -3.64296,2.25235 l -0.22819,-0.12752 a 1.2872483,1.2872483 0 0 0 -1.72885,0.45906 v 0 c -0.35571,0.54362 -0.32349,1.35973 -0.32349,1.35973 l -0.24698,-0.74765 v -5.54362 c 0,-0.74363 0.53691,-1.34229 1.20805,-1.34229 h 2.28188 c 1.48322,-0.004 2.68054,1.32752 2.68054,2.97047 z"
           id="path821"
           style="stroke-width:0.134228" />
      </g>
    </g>
  </g>
</svg>
